<svg id="dashboard_1_" data-name="dashboard (1)" xmlns="http://www.w3.org/2000/svg" width="24" height="24" viewBox="0 0 24 24">
  <path id="Path_51488" data-name="Path 51488" d="M9.346,8.084H1.768A1.77,1.77,0,0,1,0,6.315V1.768A1.77,1.77,0,0,1,1.768,0H9.346a1.77,1.77,0,0,1,1.768,1.768V6.315A1.77,1.77,0,0,1,9.346,8.084ZM1.768,1.516a.253.253,0,0,0-.253.253V6.315a.253.253,0,0,0,.253.253H9.346A.253.253,0,0,0,9.6,6.315V1.768a.253.253,0,0,0-.253-.253Zm0,0" transform="translate(0 0)" fill="#fff"/>
  <path id="Path_51489" data-name="Path 51489" d="M9.346,227.478H1.768A1.77,1.77,0,0,1,0,225.71V215.1a1.77,1.77,0,0,1,1.768-1.768H9.346a1.77,1.77,0,0,1,1.768,1.768V225.71A1.77,1.77,0,0,1,9.346,227.478Zm-7.578-12.63a.253.253,0,0,0-.253.253V225.71a.253.253,0,0,0,.253.253H9.346a.253.253,0,0,0,.253-.253V215.1a.253.253,0,0,0-.253-.253Zm0,0" transform="translate(0 -203.478)" fill="#fff"/>
  <path id="Path_51490" data-name="Path 51490" d="M286.679,349.416H279.1a1.77,1.77,0,0,1-1.768-1.768V343.1a1.77,1.77,0,0,1,1.768-1.768h7.578a1.77,1.77,0,0,1,1.768,1.768v4.547A1.77,1.77,0,0,1,286.679,349.416Zm-7.578-6.568a.253.253,0,0,0-.253.253v4.547a.253.253,0,0,0,.253.253h7.578a.253.253,0,0,0,.253-.253V343.1a.253.253,0,0,0-.253-.253Zm0,0" transform="translate(-264.447 -325.416)" fill="#fff"/>
  <path id="Path_51491" data-name="Path 51491" d="M286.679,14.146H279.1a1.77,1.77,0,0,1-1.768-1.768V1.768A1.77,1.77,0,0,1,279.1,0h7.578a1.77,1.77,0,0,1,1.768,1.768V12.378A1.77,1.77,0,0,1,286.679,14.146ZM279.1,1.516a.253.253,0,0,0-.253.253V12.378a.253.253,0,0,0,.253.253h7.578a.253.253,0,0,0,.253-.253V1.768a.253.253,0,0,0-.253-.253Zm0,0" transform="translate(-264.447 0)" fill="#fff"/>
</svg>
